<?xml version="1.0" encoding="utf-8"?>
<!-- Generator: Adobe Illustrator 23.0.1, SVG Export Plug-In . SVG Version: 6.00 Build 0)  -->
<svg version="1.1" id="Ebene_1" xmlns="http://www.w3.org/2000/svg" xmlns:xlink="http://www.w3.org/1999/xlink" x="0px" y="0px"
	 width="578px" height="243.4px" viewBox="0 0 578 243.4" style="enable-background:new 0 0 578 243.4;" xml:space="preserve">
<style type="text/css">
	.st0{opacity:0;fill:#FFFFFF;enable-background:new    ;}
	.st1{opacity:0;}
	.st2{fill:#FFFFFF;}
</style>
<title>partner</title>
<rect class="st0" width="578" height="243.4"/>
<g class="st1">
	<path class="st2" d="M105.2,157.4V86.2h19.2v55.6h27.4v15.5L105.2,157.4L105.2,157.4z"/>
	<path class="st2" d="M259.7,121.7c0,12-2.9,21.1-8.8,27.3c-5.9,6.2-14.5,9.3-25.8,9.3c-11.2,0-19.7-3.1-25.7-9.4
		c-6-6.3-8.9-15.4-8.9-27.3c0-11.8,3-20.9,8.9-27.1s14.5-9.4,25.8-9.4s19.9,3.1,25.8,9.3C256.8,100.6,259.7,109.7,259.7,121.7z
		 M210.7,121.7c0,13.8,4.8,20.6,14.4,20.6c4.9,0,8.5-1.7,10.8-5c2.4-3.3,3.5-8.5,3.6-15.6c0-7.1-1.2-12.4-3.6-15.8
		c-2.4-3.4-5.9-5.1-10.7-5.1C215.6,100.9,210.8,107.8,210.7,121.7L210.7,121.7z"/>
	<path class="st2" d="M331.1,115.7h30.7v38.4c-8.9,2.9-18.2,4.4-27.5,4.3c-11,0-19.4-3.2-25.4-9.5c-6-6.4-9-15.4-9-27.2
		c0-11.5,3.3-20.4,9.8-26.8c6.6-6.4,15.7-9.6,27.5-9.6c4.3,0,8.5,0.4,12.7,1.3c3.6,0.7,7,1.8,10.4,3.2l-6.1,15.1
		c-5.3-2.6-11-3.9-16.9-3.8c-5.6,0-9.9,1.8-13,5.5s-4.6,8.9-4.6,15.6c0,6.7,1.4,11.7,4.2,15.2c2.8,3.5,6.8,5.2,12,5.2
		c2.6,0,5.3-0.3,7.9-0.8v-11.1h-12.7V115.7L331.1,115.7z"/>
	<path class="st2" d="M472.8,121.7c0,12-2.9,21.1-8.8,27.3s-14.5,9.3-25.8,9.3c-11.2,0-19.7-3.1-25.7-9.4c-6-6.3-8.9-15.4-8.9-27.3
		c0-11.8,3-20.9,8.9-27.1s14.5-9.4,25.8-9.4s19.9,3.1,25.8,9.3C469.8,100.6,472.8,109.7,472.8,121.7z M423.8,121.7
		c0,13.8,4.8,20.6,14.4,20.6c4.9,0,8.5-1.7,10.8-5c2.4-3.3,3.5-8.5,3.6-15.6c0-7.1-1.2-12.4-3.6-15.8s-5.9-5.1-10.7-5.1
		C428.6,100.9,423.8,107.8,423.8,121.7L423.8,121.7z"/>
</g>
</svg>
