<svg xmlns="http://www.w3.org/2000/svg" viewBox="0 0 325.43 52.43"><defs><style>.a{fill:#fff;}</style></defs><title>logo-secret-escapes</title><path class="a" d="M54.26,35.27c-1.86,1.66-6.08,4.67-13.25,4.67-9.28,0-16.51-5.06-16.51-15.23C24.5,14.09,31.93,8.9,41.14,8.9c10.56,0,12.67,7.75,13,11.84A100.19,100.19,0,0,1,36.41,26C37,30,39,35.27,46.9,35.34a14.94,14.94,0,0,0,6.91-1.66ZM35.83,22.73a57.37,57.37,0,0,0,8.71-1.54c-0.13-1.79-.7-9.41-4.93-9.41-3.39,0-3.9,4.42-3.9,7.55C35.7,20.49,35.83,21.57,35.83,22.73Z" transform="translate(-1.28 -0.79)"/><path class="a" d="M79.76,36.3a20.74,20.74,0,0,1-11.39,3.65c-17.09,0-17.09-12.42-17.09-15,0-4.22,3.84-16,17.92-16,8.71,0,9.09,2.5,9.86,2.56a9.32,9.32,0,0,1-3.46,6.27h-1c-0.9-1.22-3.84-5.25-7.11-5.25s-5.06,4.22-5.06,9.66c0,9.09,5.25,13.19,11.33,13.19a24.21,24.21,0,0,0,5.25-.51Z" transform="translate(-1.28 -0.79)"/><path class="a" d="M128.77,35.27c-1.86,1.66-6.08,4.67-13.25,4.67C106.23,39.95,99,34.89,99,24.71,99,14.09,106.43,8.9,115.64,8.9c10.56,0,12.67,7.75,13,11.84A100.19,100.19,0,0,1,110.91,26c0.64,4,2.56,9.28,10.5,9.35a14.94,14.94,0,0,0,6.91-1.66ZM110.33,22.73A57.37,57.37,0,0,0,119,21.19c-0.13-1.79-.7-9.41-4.93-9.41-3.39,0-3.9,4.42-3.9,7.55C110.2,20.49,110.33,21.57,110.33,22.73Z" transform="translate(-1.28 -0.79)"/><path class="a" d="M20.62,19c-0.19-1.79-2-7.23-6.21-7.23A3.07,3.07,0,0,0,11.14,15c0,1.54,0,3.33,8.83,7.43a9.23,9.23,0,0,1,5.63,8c0,7-6.21,9.54-13.44,9.54a21.85,21.85,0,0,1-9.86-2.18,56.76,56.76,0,0,1-1-9.73H4.93c0.7,5.82,4.35,9,7.36,9,3.2,0,3.71-1.79,3.71-3.59,0-1.34-1.15-3.39-4.67-5.25-4.23-2.18-9.79-4.16-9.79-10.37,0-5.44,4.16-9,12.8-9A19.7,19.7,0,0,1,23,10.69,36.49,36.49,0,0,1,23.69,19H20.62" transform="translate(-1.28 -0.79)"/><path class="a" d="M128.09,9.86l0-3c0-7,10.43-5.94,10.43-5.94v9c2.82,0.26,4.55.32,7.17,0.51V12a69.65,69.65,0,0,1-7.17.7v10.5c0,6.72.06,12.29,5.89,12.29a10.87,10.87,0,0,0,3-.58l0.45,1.66C146,37.77,143,39.95,136,39.95c-1,0-7.87,0-7.87-9.09v-21Z" transform="translate(-1.28 -0.79)"/><path class="a" d="M81.67,39.9l0.09-19.23c0-4.29,0-6.66-1.79-6.66H78.17L77.66,12.1A106.73,106.73,0,0,1,91,8.9a21.3,21.3,0,0,1,.7,4.48c1.66-1.66,4-4.48,7.49-4.48s4.86,2.56,5.57,4a8.68,8.68,0,0,1-4.54,5.76c-1.86,0-3.46-1.86-6.53-2.63a13.41,13.41,0,0,0-1.54-.32V31.25L92.1,34C92.1,41,81.67,39.9,81.67,39.9Z" transform="translate(-1.28 -0.79)"/><path class="a" d="M229.16,37.15c-1.66,1.22-5,2.69-10.12,2.69-7.3,0-14.91-4.29-14.91-13.51,0-12.29,8.71-17.54,16.45-17.54,3.07,0,6,.7,7.43,1.86a9.89,9.89,0,0,1-1.66,4.67H226a9,9,0,0,0-7.49-3.52c-4.61,0-8.45,3.65-8.45,10.88C210,32.8,215.2,37.6,222.5,37.6a13.71,13.71,0,0,0,6.15-2Z" transform="translate(-1.28 -0.79)"/><path class="a" d="M255.17,38.24a7.57,7.57,0,0,1-4.87,1.6c-3.26,0-4.42-1.34-5.06-2.69a15.06,15.06,0,0,1-9.41,2.69c-4.74,0-7.94-2.69-7.94-6.21,0-8.32,11.07-10.82,16.71-12.48V19.68c0-4.22-1.15-7.87-6-7.87-5.12,0-6.72,4-7.94,6.4H230.2a7.41,7.41,0,0,1-1.66-2.56c1.92-2.56,6-6.85,12.8-6.85,7.3,0,8.83,3.84,8.83,10.37v9.15c0,4.48,0,9.28,3.52,9.28a2.16,2.16,0,0,0,1.15-.26ZM243.71,24.16c-3.65,0-9.92,1.6-9.92,7.62,0,3.65,2.3,5.83,6,5.83A6,6,0,0,0,244.61,35V24.16h-0.9Z" transform="translate(-1.28 -0.79)"/><path class="a" d="M307.64,36.26a18.47,18.47,0,0,1-11.2,3.59c-8.07,0-14.66-5.38-14.66-14.47,0-10.82,7.49-16.58,14.85-16.58,8.58,0,10.43,6.21,11.26,9.67a94.1,94.1,0,0,1-20.23,6.85c0.26,4,3.33,11.52,12,11.52a14.16,14.16,0,0,0,7.23-2Zm-20-13.76a113.79,113.79,0,0,0,14.47-3.65c-0.9-4-2.5-7.81-7.36-7.81C289.33,11,287.67,17.82,287.67,22.49Z" transform="translate(-1.28 -0.79)"/><path class="a" d="M322.81,18.4c0-2.88-2-7.49-6.21-7.49-2.43,0-4.1,1.73-4.1,4.54,0,7.3,14.21,5.18,14.21,15.43,0,6.08-5,9-11.07,9A17.51,17.51,0,0,1,307.51,38a28,28,0,0,1-1.21-8.58H308c1.28,4.16,3.46,8.32,8.58,8.32A4.63,4.63,0,0,0,321.15,33c0-8.7-14.21-5.63-14.21-16.07,0-5.25,4.67-8.13,10.24-8.13A12.3,12.3,0,0,1,324,10.65a26.77,26.77,0,0,1,.83,7.75h-2Z" transform="translate(-1.28 -0.79)"/><path class="a" d="M188.17,36.21a20.29,20.29,0,0,1-14.68,6.54c-10.9.1-19.81-7.27-19.81-19.56,0-14.62,10.12-22.41,20.07-22.41,11.59,0,14.1,8.39,15.23,13.06a127.25,127.25,0,0,1-27.34,9.26c0.35,5.36,4.5,15.57,16.18,15.57,5.28,0,7.79-3.47,9-4.07M161.63,19.3a154.13,154.13,0,0,0,19.55-4.93C180,9,177.81,3.81,171.23,3.81,163.88,3.81,161.63,13,161.63,19.3Z" transform="translate(-1.28 -0.79)"/><path class="a" d="M200.92,18.4c0-2.88-2-7.49-6.21-7.49-2.43,0-4.1,1.73-4.1,4.54,0,7.3,14.21,5.18,14.21,15.43,0,6.08-5,9-11.07,9A17.51,17.51,0,0,1,185.63,38a28,28,0,0,1-1.22-8.58h1.73c1.28,4.16,3.46,8.32,8.58,8.32A4.63,4.63,0,0,0,199.26,33c0-8.7-14.21-5.63-14.21-16.07,0-5.25,4.67-8.13,10.24-8.13a12.3,12.3,0,0,1,6.79,1.86,26.77,26.77,0,0,1,.83,7.75h-2Z" transform="translate(-1.28 -0.79)"/><path class="a" d="M268.45,8.8a15.7,15.7,0,0,0-8.58,2.69,6.9,6.9,0,0,0-.77-2.69c-2.24,0-7.3,1.66-9.15,2.24l0.25,1.54,1.41-.38c0.13,0,.58-0.06.9-0.06,1.79,0,1.79,1.79,1.79,8.07v33h0s5.62,0.6,5.62-3.2V39.14a18.74,18.74,0,0,0,5.25.71c7,0,17.28-4.16,17.28-17.09C282.4,13.79,276.06,8.8,268.45,8.8ZM267,37.6a10.24,10.24,0,0,1-7.11-2.31v-22a11.33,11.33,0,0,1,5.38-1.47c5.76,0,11.26,4,11.26,12.35C276.51,32.35,273.37,37.6,267,37.6Z" transform="translate(-1.28 -0.79)"/></svg>